<svg width="40" height="40" fill="none" xmlns="http://www.w3.org/2000/svg"><path d="M3.75 2.5A1.25 1.25 0 002.5 3.75v10a1.25 1.25 0 01-2.5 0v-10A3.75 3.75 0 013.75 0h10a1.25 1.25 0 110 2.5h-10zM25 1.25A1.25 1.25 0 0126.25 0h10A3.75 3.75 0 0140 3.75v10a1.25 1.25 0 01-2.5 0v-10a1.25 1.25 0 00-1.25-1.25h-10A1.25 1.25 0 0125 1.25zM1.25 25a1.25 1.25 0 011.25 1.25v10a1.25 1.25 0 001.25 1.25h10a1.25 1.25 0 010 2.5h-10A3.75 3.75 0 010 36.25v-10A1.25 1.25 0 011.25 25zm37.5 0A1.25 1.25 0 0140 26.25v10A3.75 3.75 0 0136.25 40h-10a1.25 1.25 0 010-2.5h10a1.25 1.25 0 001.25-1.25v-10A1.25 1.25 0 0138.75 25z" fill="#fff"/></svg>