<svg width="14" height="16" fill="none" xmlns="http://www.w3.org/2000/svg"><path d="M12.832 5.917h.833v9.166H.332V5.918h.833V4.25c0-2.3 1.867-4.167 4.167-4.167.592 0 1.158.126 1.667.35a4.117 4.117 0 011.666-.35c2.3 0 4.167 1.867 4.167 4.167v1.667zm-10-1.667v1.667h1.667V4.25c0-.942.325-1.8.85-2.5h-.017a2.507 2.507 0 00-2.5 2.5zm8.333 1.667V4.25c0-1.375-1.125-2.5-2.5-2.5H8.65a4.15 4.15 0 01.85 2.5v1.667h1.666zM7 2.4a2.488 2.488 0 00-.834 1.85v1.667h1.667V4.25A2.49 2.49 0 007 2.4z" fill="#A1AEBA"/></svg>