<svg width="18" height="16" fill="none" xmlns="http://www.w3.org/2000/svg"><path d="M14.418 7c-1.583 0-2.917 1.334-2.917 2.917 0 2.167 2.917 5.417 2.917 5.417s2.917-3.25 2.917-5.417C17.335 8.334 16 7 14.418 7zm0 4c-.583 0-1-.5-1-1 0-.583.5-1 1-1s1 .5 1 1c.083.5-.417 1-1 1zm-3.292 2.667H2.335A1.667 1.667 0 01.668 12V2A1.667 1.667 0 012.335.333h13.333A1.66 1.66 0 0117.335 2v4.417a4.625 4.625 0 00-1.667-.9v-1.85H2.335v2.5h9.491C10.635 7 9.835 8.383 9.835 9.917c0 1.25.6 2.591 1.291 3.75z" fill="#A1AEBA"/></svg>