<svg width="18" height="18" fill="none" xmlns="http://www.w3.org/2000/svg"><path d="M9.001.667C4.418.667.668 4.417.668 9s3.75 8.333 8.333 8.333c4.584 0 8.334-3.75 8.334-8.333S13.585.667 9 .667zM6.026 11.033l-1.133-.508c.233-.467.358-.967.358-1.484 0-.55-.125-1.075-.358-1.566l1.133-.508c.317.675.475 1.366.475 2.074 0 .625-.158 1.292-.475 1.992zm2.584 1.25l-1.092-.541a6.7 6.7 0 00.65-2.859 5.4 5.4 0 00-.65-2.625l1.092-.625c.55.967.808 2.05.808 3.25 0 1.225-.258 2.359-.808 3.4zm2.625 1.175l-1.142-.583c.658-1.284.992-2.567.992-3.875 0-1.309-.334-2.609-.992-3.909l1.142-.55c.725 1.484 1.1 2.975 1.1 4.459 0 1.517-.375 3-1.1 4.458z" fill="#A1AEBA"/></svg>